# xmcd
#
# Track frame offsets:
# 150
# 8952
# 20895
# 34582
# 45467
# 57240
# 68867
# 78967
# 88897
# 98325
# 109437
# 120780
# 132065
# 142907
# 153180
# 163365
# 173520
# 184647
# 195172
# 205760
#
# Disc length: 2876 seconds
#
#
# Revision: 0
# Processed by: cddbd v1.5.2PL0 Copyright (c) Steve Scherf et al.
# Submitted via: FreeRIP 2.95 
#
DISCID=f60b3a14
DTITLE=Irmãs Freitas - Raízes Sertanejas
DYEAR=1900
DGENRE=
TTITLE0=Amando em Segredo
TTITLE1=Velho Cuiabá
TTITLE2=Carro Branco
TTITLE3=Eu Vivo a Sofrer
TTITLE4=Os Telefones do Mundo
TTITLE5=Me Escreva Agora
TTITLE6=Suspiro Mensageiro
TTITLE7=Recanto de Amor
TTITLE8=Amor Dividido
TTITLE9=Proposta
TTITLE10=Dois Corações
TTITLE11=Nosso Romance
TTITLE12=Eu Só Queria
TTITLE13=Canoeira do Araguaia
TTITLE14=Mágoa de Um Amor Sem Fim
TTITLE15=Pombinho Portador
TTITLE16=Espelhos do Mundo
TTITLE17=Nossa Canção
TTITLE18=Jovem Diferente
TTITLE19=Negra Solidão
EXTD=
EXTT0=
EXTT1=
EXTT2=
EXTT3=
EXTT4=
EXTT5=
EXTT6=
EXTT7=
EXTT8=
EXTT9=
EXTT10=
EXTT11=
EXTT12=
EXTT13=
EXTT14=
EXTT15=
EXTT16=
EXTT17=
EXTT18=
EXTT19=
PLAYORDER=
